<mxfile host="app.diagrams.net" modified="2023-12-04T22:44:58.090Z" agent="Mozilla/5.0 (Windows NT 10.0; Win64; x64) AppleWebKit/537.36 (KHTML, like Gecko) Chrome/119.0.0.0 Safari/537.36" etag="w5ucGp6cJ0hBOQEnb_YX" version="22.1.5" type="github">
  <diagram name="第 1 页" id="vgJU4LjBQ2pBz4m-gCEC">
    <mxGraphModel dx="1050" dy="534" grid="1" gridSize="10" guides="1" tooltips="1" connect="1" arrows="1" fold="1" page="1" pageScale="1" pageWidth="827" pageHeight="1169" math="0" shadow="0">
      <root>
        <mxCell id="0" />
        <mxCell id="1" parent="0" />
        <mxCell id="waoaub329VN3d0TcHbbo-1" value="OPS" style="rounded=1;whiteSpace=wrap;html=1;" vertex="1" parent="1">
          <mxGeometry x="320" y="140" width="90" height="40" as="geometry" />
        </mxCell>
        <mxCell id="waoaub329VN3d0TcHbbo-2" value="AAMH05_机柜状态监测模块" style="rounded=1;whiteSpace=wrap;html=1;" vertex="1" parent="1">
          <mxGeometry x="305" y="240" width="120" height="60" as="geometry" />
        </mxCell>
        <mxCell id="waoaub329VN3d0TcHbbo-3" value="温度" style="ellipse;shape=cloud;whiteSpace=wrap;html=1;" vertex="1" parent="1">
          <mxGeometry x="210" y="370" width="120" height="80" as="geometry" />
        </mxCell>
        <mxCell id="waoaub329VN3d0TcHbbo-4" value="" style="ellipse;shape=cloud;whiteSpace=wrap;html=1;" vertex="1" parent="1">
          <mxGeometry x="380" y="370" width="120" height="80" as="geometry" />
        </mxCell>
      </root>
    </mxGraphModel>
  </diagram>
</mxfile>
